<?xml version="1.0" encoding="UTF-8"?>
<svg width="94px" height="96px" viewBox="0 0 94 96" version="1.1" xmlns="http://www.w3.org/2000/svg" xmlns:xlink="http://www.w3.org/1999/xlink">
    <!-- Generator: Sketch 48.1 (47250) - http://www.bohemiancoding.com/sketch -->
    <title>Group</title>
    <desc>Created with Sketch.</desc>
    <defs></defs>
    <g id="Page-1" stroke="none" stroke-width="1" fill="none" fill-rule="evenodd">
        <g id="noun_Nuclear_75368" transform="translate(-4.000000, -1.000000)" fill="#FFFFFF" fill-rule="nonzero">
            <g id="Group" transform="translate(4.000000, 0.000000)">
                <path d="M74.38,55.964 C77.266,54.477 79.92,52.946 82.286,51.386 C90.843,45.749 94.647,40.426 93.292,35.992 C92.408,33.096 89.516,31.122 84.707,30.122 C83.437,29.855 82.037,29.667 80.533,29.542 C79.359,26.639 76.135,25.062 73.074,25.994 C71.183,26.571 69.771,27.994 69.133,29.72 C67.267,29.895 65.335,30.127 63.346,30.422 C64.178,15.16 61.921,2.549 55.082,1.126 C48.427,-0.258 41.528,9.796 36.264,23.531 C30.157,20.015 24.535,17.602 20.002,16.666 C15.187,15.662 11.751,16.316 9.785,18.621 C7.796,20.954 7.723,24.541 9.516,29.188 C7.611,31.751 7.984,35.388 10.447,37.49 C11.751,38.605 13.387,39.075 14.959,38.933 C16.227,40.742 17.628,42.6 19.162,44.478 C6.874,50.799 -1.636,58.196 0.266,64.417 C1.145,67.311 4.037,69.284 8.85,70.283 C13.459,71.244 19.716,71.26 26.878,70.426 C26.539,84.145 28.936,95.042 35.27,96.366 C38.888,97.114 42.571,94.49 46.024,89.738 C46.334,89.863 46.653,89.963 46.991,90.035 C50.303,90.72 53.545,88.597 54.229,85.285 C54.73,82.892 53.755,80.545 51.93,79.164 C52.566,77.756 53.182,76.279 53.778,74.759 C61.223,79.424 68.162,82.623 73.55,83.744 C73.554,83.744 73.554,83.744 73.554,83.744 C78.363,84.744 81.802,84.084 83.769,81.783 C87.991,76.838 83.133,66.667 74.38,55.964 Z M68.952,33.401 C68.972,33.479 68.991,33.56 69.008,33.64 C70.002,36.87 73.425,38.694 76.657,37.707 C78.823,37.046 80.343,35.294 80.825,33.241 C81.941,33.355 82.994,33.508 83.961,33.708 C87.272,34.397 89.34,35.585 89.79,37.063 C90.405,39.07 88.227,43.083 80.276,48.328 C77.805,49.956 75.005,51.554 71.948,53.093 C68.948,49.665 65.599,46.222 62.066,42.921 C62.499,39.969 62.837,37.025 63.083,34.152 C65.106,33.837 67.069,33.582 68.952,33.401 Z M50.271,61.637 C48.176,62.278 46.089,62.875 44.031,63.41 C42.357,62.091 40.679,60.722 39.012,59.303 C36.636,57.27 34.361,55.211 32.202,53.133 C32.564,50.929 32.981,48.653 33.472,46.306 C33.793,44.745 34.137,43.224 34.488,41.741 C37.253,40.713 40.181,39.712 43.283,38.765 C45.378,38.125 47.46,37.535 49.525,36.994 C51.201,38.31 52.875,39.686 54.544,41.107 C55.795,42.178 56.998,43.24 58.161,44.294 C57.801,46.515 57.379,48.811 56.886,51.18 C56.229,54.356 55.499,57.362 54.73,60.207 C53.264,60.704 51.777,61.178 50.271,61.637 Z M53.505,64.465 C53.002,66.113 52.484,67.701 51.959,69.213 C50.551,68.26 49.133,67.258 47.704,66.204 C48.914,65.865 50.127,65.512 51.344,65.146 C52.067,64.924 52.792,64.692 53.505,64.465 Z M39.54,64.511 C36.505,65.199 33.54,65.772 30.698,66.222 C30.868,63.503 31.148,60.607 31.553,57.553 C33.186,59.074 34.882,60.591 36.635,62.084 C37.6,62.907 38.569,63.719 39.54,64.511 Z M29.029,49.988 C27.623,48.551 26.275,47.107 25.004,45.676 C26.692,44.897 28.476,44.115 30.363,43.345 C30.194,44.087 30.031,44.823 29.886,45.559 C29.579,47.03 29.29,48.507 29.029,49.988 Z M35.579,37.455 C36.395,34.426 37.264,31.59 38.168,28.941 C40.678,30.531 43.248,32.291 45.846,34.203 C44.638,34.543 43.428,34.89 42.211,35.264 C39.99,35.943 37.773,36.677 35.579,37.455 Z M54.011,35.899 C55.83,35.484 57.623,35.112 59.382,34.784 C59.233,36.449 59.029,38.176 58.797,39.955 C58.174,39.402 57.55,38.859 56.916,38.326 C55.954,37.499 54.983,36.692 54.011,35.899 Z M61.364,47.284 C64.023,49.841 66.418,52.335 68.553,54.739 C65.52,56.141 62.282,57.478 58.89,58.737 C59.471,56.48 59.996,54.203 60.469,51.928 C60.792,50.389 61.085,48.834 61.364,47.284 Z M54.336,4.711 C57.889,5.45 60.615,15.254 59.668,31.023 C56.647,31.56 53.528,32.225 50.352,33.01 C46.669,30.191 42.989,27.643 39.429,25.427 C44.746,11.416 50.887,3.996 54.336,4.711 Z M18.415,37.479 C18.651,37.275 18.879,37.054 19.082,36.811 C21.279,34.244 20.977,30.377 18.404,28.183 C16.748,26.768 14.557,26.398 12.619,26.995 C11.575,23.908 11.767,21.941 12.573,21 C13.573,19.83 15.947,19.561 19.254,20.25 C23.588,21.15 29.041,23.528 34.991,27.011 C33.65,30.846 32.44,34.899 31.394,39.019 C28.34,40.209 25.364,41.483 22.537,42.818 C21.034,41.007 19.651,39.22 18.415,37.479 Z M9.594,66.703 C6.284,66.015 4.216,64.822 3.765,63.343 C2.772,60.1 9.08,53.677 21.589,47.333 C23.651,49.694 25.897,52.076 28.308,54.45 C27.689,58.62 27.254,62.764 27.03,66.741 C20.049,67.595 13.992,67.613 9.594,66.703 Z M48.481,77.931 C45.542,77.809 42.86,79.821 42.245,82.794 C41.896,84.466 42.269,86.115 43.143,87.433 C40.367,91.293 37.822,93.155 36.018,92.781 C32.73,92.097 30.156,83.659 30.534,69.938 C34.568,69.331 38.832,68.479 43.2,67.395 C45.706,69.311 48.205,71.098 50.66,72.741 C49.946,74.592 49.215,76.322 48.481,77.931 Z M80.98,79.406 C79.979,80.581 77.61,80.848 74.297,80.159 C69.133,79.084 62.381,75.917 55.085,71.274 C56.027,68.629 56.914,65.866 57.72,63.049 C62.444,61.385 66.923,59.557 71.024,57.615 C79.965,68.42 83.184,76.825 80.98,79.406 Z" id="Shape"></path>
                <path d="M50.239,45.249 C47.667,43.05 43.803,43.36 41.609,45.928 C39.411,48.5 39.716,52.367 42.292,54.562 C44.86,56.756 48.726,56.452 50.92,53.877 C53.116,51.309 52.813,47.441 50.239,45.249 Z" id="Shape"></path>
            </g>
        </g>
    </g>
</svg>